<svg width="19" height="25" viewBox="0 0 19 25" fill="none" xmlns="http://www.w3.org/2000/svg">
<path opacity="0.4" d="M19 8.232C19.016 7.512 18.832 6.856 18.448 6.264C18.08 5.656 17.584 5.192 16.96 4.872C16.336 4.552 15.664 4.424 14.944 4.488C14.24 4.536 13.6 4.776 13.024 5.208C12.464 5.624 12.056 6.16 11.8 6.816C11.544 7.472 11.472 8.152 11.584 8.856C11.712 9.544 12.008 10.152 12.472 10.68C12.952 11.208 13.528 11.576 14.2 11.784C13.944 12.296 13.576 12.704 13.096 13.008C12.616 13.296 12.096 13.448 11.536 13.464H8.536C7.992 13.464 7.456 13.568 6.928 13.776C6.416 13.968 5.96 14.248 5.56 14.616V7.392C6.168 7.264 6.712 7.008 7.192 6.624C7.672 6.224 8.032 5.736 8.272 5.16C8.512 4.584 8.6 3.984 8.536 3.36C8.472 2.736 8.264 2.168 7.912 1.656C7.56 1.144 7.112 0.743999 6.568 0.455998C6.024 0.151999 5.432 0 4.792 0C4.168 0 3.584 0.151999 3.04 0.455998C2.496 0.743999 2.048 1.144 1.696 1.656C1.36 2.168 1.16 2.736 1.096 3.36C1.032 3.984 1.12 4.584 1.36 5.16C1.6 5.736 1.952 6.224 2.416 6.624C2.896 7.008 3.44 7.264 4.048 7.392V16.512C3.44 16.64 2.896 16.896 2.416 17.28C1.936 17.664 1.568 18.136 1.312 18.696C1.056 19.256 0.952 19.848 1 20.472C1.048 21.096 1.232 21.672 1.552 22.2C1.872 22.728 2.296 23.152 2.824 23.472C3.352 23.792 3.928 23.968 4.552 24C5.192 24.032 5.792 23.92 6.352 23.664C6.912 23.408 7.376 23.04 7.744 22.56C8.128 22.064 8.376 21.512 8.488 20.904C8.6 20.28 8.56 19.672 8.368 19.08C8.176 18.488 7.864 17.976 7.432 17.544C7 17.112 6.48 16.8 5.872 16.608C6.128 16.112 6.496 15.712 6.976 15.408C7.456 15.104 7.976 14.952 8.536 14.952H11.536C12.496 14.952 13.36 14.672 14.128 14.112C14.912 13.552 15.456 12.816 15.76 11.904C16.368 11.824 16.92 11.616 17.416 11.28C17.912 10.928 18.296 10.488 18.568 9.96C18.856 9.416 19 8.84 19 8.232ZM2.56 3.744C2.56 3.344 2.656 2.968 2.848 2.616C3.056 2.264 3.336 1.992 3.688 1.8C4.04 1.592 4.416 1.488 4.816 1.488C5.216 1.488 5.584 1.592 5.92 1.8C6.272 1.992 6.544 2.264 6.736 2.616C6.944 2.968 7.048 3.344 7.048 3.744C7.048 4.352 6.824 4.88 6.376 5.328C5.944 5.76 5.416 5.976 4.792 5.976C4.184 5.976 3.656 5.76 3.208 5.328C2.776 4.88 2.56 4.352 2.56 3.744ZM7.048 20.184C7.048 20.792 6.824 21.32 6.376 21.768C5.944 22.2 5.416 22.416 4.792 22.416C4.184 22.416 3.656 22.2 3.208 21.768C2.776 21.32 2.56 20.792 2.56 20.184C2.56 19.56 2.776 19.032 3.208 18.6C3.656 18.152 4.184 17.928 4.792 17.928C5.416 17.928 5.944 18.152 6.376 18.6C6.824 19.032 7.048 19.56 7.048 20.184ZM15.28 10.464C14.656 10.464 14.12 10.248 13.672 9.816C13.24 9.368 13.024 8.84 13.024 8.232C13.024 7.608 13.24 7.08 13.672 6.648C14.12 6.2 14.648 5.976 15.256 5.976C15.88 5.976 16.408 6.2 16.84 6.648C17.288 7.08 17.512 7.608 17.512 8.232C17.512 8.84 17.288 9.368 16.84 9.816C16.408 10.248 15.888 10.464 15.28 10.464Z" fill="white"/>
</svg>
