<svg width="24" height="24" viewBox="0 0 24 24" fill="none" xmlns="http://www.w3.org/2000/svg">
<path opacity="0.4" d="M10.944 13.488L9.624 14.808C9.416 13.992 8.976 13.32 8.304 12.792C7.632 12.264 6.864 12 6 12C5.136 12 4.368 12.264 3.696 12.792C3.024 13.32 2.584 14 2.376 14.832L1.056 13.488L0 14.568L1.728 16.272L1.512 16.488V18H0V19.488H1.512V19.584C1.576 20.08 1.712 20.552 1.92 21L0 22.944L1.056 24L2.712 22.344C3.112 22.856 3.6 23.256 4.176 23.544C4.752 23.832 5.36 23.976 6 23.976C6.64 23.976 7.248 23.832 7.824 23.544C8.4 23.256 8.888 22.856 9.288 22.344L10.944 24L12 22.944L10.08 21C10.288 20.536 10.432 20.056 10.512 19.56V19.44H12V18H10.512V16.488L10.272 16.272L12 14.568L10.944 13.488ZM6 13.488C6.624 13.488 7.152 13.712 7.584 14.16C8.032 14.592 8.256 15.12 8.256 15.744H3.744C3.744 15.12 3.96 14.592 4.392 14.16C4.84 13.712 5.376 13.488 6 13.488ZM9 19.488C8.92 20.288 8.6 20.976 8.04 21.552C7.48 22.112 6.8 22.432 6 22.512C5.2 22.432 4.52 22.112 3.96 21.552C3.4 20.976 3.08 20.288 3 19.488V17.256H9V19.488ZM23.76 9.6V10.848L13.512 17.376V15.6L22.008 10.224L9 1.992V11.448C8.536 11.128 8.032 10.888 7.488 10.728V0.623999L8.64 0L23.76 9.6Z" fill="white"/>
</svg>
