<svg width="22" height="22" viewBox="0 0 22 22" fill="none" xmlns="http://www.w3.org/2000/svg">
<path d="M16.25 8.802C16.2593 8.382 16.152 7.99933 15.928 7.654C15.7133 7.29933 15.424 7.02867 15.06 6.842C14.696 6.65533 14.304 6.58067 13.884 6.618C13.4733 6.646 13.1 6.786 12.764 7.038C12.4373 7.28067 12.1993 7.59333 12.05 7.976C11.9007 8.35867 11.8587 8.75533 11.924 9.166C11.9987 9.56733 12.1713 9.922 12.442 10.23C12.722 10.538 13.058 10.7527 13.45 10.874C13.3007 11.1727 13.086 11.4107 12.806 11.588C12.526 11.756 12.2227 11.8447 11.896 11.854H10.146C9.82867 11.854 9.516 11.9147 9.208 12.036C8.90933 12.148 8.64333 12.3113 8.41 12.526V8.312C8.76467 8.23733 9.082 8.088 9.362 7.864C9.642 7.63067 9.852 7.346 9.992 7.01C10.132 6.674 10.1833 6.324 10.146 5.96C10.1087 5.596 9.98733 5.26467 9.782 4.966C9.57667 4.66733 9.31533 4.434 8.998 4.266C8.68067 4.08867 8.33533 4 7.962 4C7.598 4 7.25733 4.08867 6.94 4.266C6.62267 4.434 6.36133 4.66733 6.156 4.966C5.96 5.26467 5.84333 5.596 5.806 5.96C5.76867 6.324 5.82 6.674 5.96 7.01C6.1 7.346 6.30533 7.63067 6.576 7.864C6.856 8.088 7.17333 8.23733 7.528 8.312V13.632C7.17333 13.7067 6.856 13.856 6.576 14.08C6.296 14.304 6.08133 14.5793 5.932 14.906C5.78267 15.2327 5.722 15.578 5.75 15.942C5.778 16.306 5.88533 16.642 6.072 16.95C6.25867 17.258 6.506 17.5053 6.814 17.692C7.122 17.8787 7.458 17.9813 7.822 18C8.19533 18.0187 8.54533 17.9533 8.872 17.804C9.19867 17.6547 9.46933 17.44 9.684 17.16C9.908 16.8707 10.0527 16.5487 10.118 16.194C10.1833 15.83 10.16 15.4753 10.048 15.13C9.936 14.7847 9.754 14.486 9.502 14.234C9.25 13.982 8.94667 13.8 8.592 13.688C8.74133 13.3987 8.956 13.1653 9.236 12.988C9.516 12.8107 9.81933 12.722 10.146 12.722H11.896C12.456 12.722 12.96 12.5587 13.408 12.232C13.8653 11.9053 14.1827 11.476 14.36 10.944C14.7147 10.8973 15.0367 10.776 15.326 10.58C15.6153 10.3747 15.8393 10.118 15.998 9.81C16.166 9.49267 16.25 9.15667 16.25 8.802ZM6.66 6.184C6.66 5.95067 6.716 5.73133 6.828 5.526C6.94933 5.32067 7.11267 5.162 7.318 5.05C7.52333 4.92867 7.74267 4.868 7.976 4.868C8.20933 4.868 8.424 4.92867 8.62 5.05C8.82533 5.162 8.984 5.32067 9.096 5.526C9.21733 5.73133 9.278 5.95067 9.278 6.184C9.278 6.53867 9.14733 6.84667 8.886 7.108C8.634 7.36 8.326 7.486 7.962 7.486C7.60733 7.486 7.29933 7.36 7.038 7.108C6.786 6.84667 6.66 6.53867 6.66 6.184ZM9.278 15.774C9.278 16.1287 9.14733 16.4367 8.886 16.698C8.634 16.95 8.326 17.076 7.962 17.076C7.60733 17.076 7.29933 16.95 7.038 16.698C6.786 16.4367 6.66 16.1287 6.66 15.774C6.66 15.41 6.786 15.102 7.038 14.85C7.29933 14.5887 7.60733 14.458 7.962 14.458C8.326 14.458 8.634 14.5887 8.886 14.85C9.14733 15.102 9.278 15.41 9.278 15.774ZM14.08 10.104C13.716 10.104 13.4033 9.978 13.142 9.726C12.89 9.46467 12.764 9.15667 12.764 8.802C12.764 8.438 12.89 8.13 13.142 7.878C13.4033 7.61667 13.7113 7.486 14.066 7.486C14.43 7.486 14.738 7.61667 14.99 7.878C15.2513 8.13 15.382 8.438 15.382 8.802C15.382 9.15667 15.2513 9.46467 14.99 9.726C14.738 9.978 14.4347 10.104 14.08 10.104Z" fill="white"/>
</svg>