<svg width="23" height="24" viewBox="0 0 23 24" fill="none" xmlns="http://www.w3.org/2000/svg">
<path opacity="0.4" d="M14.24 0C12.624 0 11.128 0.44 9.752 1.32C8.392 2.2 7.376 3.384 6.704 4.872C6.048 6.344 5.84 7.888 6.08 9.504C6.336 11.104 7 12.512 8.072 13.728L0.00800008 22.872L1.112 23.88L9.176 14.76C10.104 15.496 11.136 16 12.272 16.272C13.424 16.544 14.576 16.576 15.728 16.368C16.896 16.16 17.968 15.72 18.944 15.048C19.92 14.376 20.712 13.536 21.32 12.528C21.928 11.52 22.304 10.432 22.448 9.264C22.592 8.096 22.488 6.944 22.136 5.808C21.784 4.672 21.216 3.664 20.432 2.784C19.648 1.904 18.72 1.224 17.648 0.743999C16.576 0.248 15.44 0 14.24 0ZM14.24 15C13.024 15 11.888 14.696 10.832 14.088C9.824 13.48 9.024 12.672 8.432 11.664C7.808 10.608 7.496 9.472 7.496 8.256C7.496 7.024 7.808 5.888 8.432 4.848C9.024 3.824 9.824 3.016 10.832 2.424C11.888 1.8 13.024 1.488 14.24 1.488C15.472 1.488 16.608 1.8 17.648 2.424C18.672 3.016 19.48 3.824 20.072 4.848C20.696 5.888 21.008 7.024 21.008 8.256C21.008 9.472 20.696 10.608 20.072 11.664C19.48 12.672 18.672 13.48 17.648 14.088C16.608 14.696 15.472 15 14.24 15Z" fill="white"/>
</svg>
