<svg width="24" height="24" viewBox="0 0 24 24" fill="none" xmlns="http://www.w3.org/2000/svg">
<path opacity="0.4" d="M19.848 8.76L24 9.576V14.424L19.848 15.24L22.2 18.768L18.768 22.2L15.24 19.848L14.424 24H9.576L8.76 19.848L5.232 22.2L1.8 18.768L4.152 15.24L0 14.424V9.576L4.152 8.76L1.8 5.232L5.232 1.8L8.76 4.152L9.576 0H14.424L15.24 4.152L18.768 1.8L22.2 5.232L19.848 8.76ZM18.288 13.824L22.272 13.008V11.016L18.288 10.2L17.736 8.904L20.04 5.472L18.6 4.032L15.168 6.336L13.872 5.784L13.056 1.8H11.064L10.248 5.784L8.952 6.336L5.52 4.032L4.08 5.472L6.384 8.904L5.832 10.2L1.848 11.016V13.008L5.832 13.824L6.384 15.12L4.08 18.552L5.52 19.992L8.952 17.688L10.248 18.24L11.064 22.224H13.056L13.872 18.24L15.168 17.688L18.6 19.992L20.04 18.552L17.736 15.12L18.288 13.824ZM10.104 9.144C10.68 8.76 11.312 8.568 12 8.568C12.624 8.568 13.192 8.728 13.704 9.048C14.232 9.352 14.648 9.768 14.952 10.296C15.272 10.808 15.432 11.376 15.432 12C15.432 12.816 15.168 13.544 14.64 14.184C14.128 14.808 13.472 15.2 12.672 15.36C11.872 15.52 11.112 15.408 10.392 15.024C9.672 14.64 9.152 14.072 8.832 13.32C8.512 12.552 8.472 11.784 8.712 11.016C8.952 10.232 9.416 9.608 10.104 9.144ZM11.04 13.416C11.328 13.608 11.648 13.704 12 13.704C12.48 13.704 12.88 13.544 13.2 13.224C13.536 12.888 13.704 12.48 13.704 12C13.704 11.6 13.576 11.24 13.32 10.92C13.064 10.6 12.736 10.4 12.336 10.32C11.936 10.24 11.552 10.296 11.184 10.488C10.832 10.68 10.576 10.968 10.416 11.352C10.256 11.72 10.232 12.104 10.344 12.504C10.472 12.888 10.704 13.192 11.04 13.416Z" fill="white"/>
</svg>
