<svg width="16" height="12" viewBox="0 0 16 12" fill="none" xmlns="http://www.w3.org/2000/svg">
<path fill-rule="evenodd" clip-rule="evenodd" d="M2.00583 6.26691L0.78 7.50003L0 6.73003L2.09 4.66003L2.85 4.67003L4.94 6.79003L4.18 7.55003L3.01348 6.36995C3.2028 8.95862 5.363 11 8 11C9.91062 11 11.571 9.92834 12.4127 8.35332L13.226 8.9499C12.1959 10.7709 10.2415 12 8 12C4.77573 12 2.14547 9.45676 2.00583 6.26691ZM12.9961 5.80051L11.76 4.55005L11 5.31005L13.09 7.42005L13.85 7.43005L15.94 5.36005L15.19 4.60005L13.996 5.78004C13.8803 2.56823 11.2401 0 8 0C5.83727 0 3.94179 1.14427 2.88597 2.86043L3.69563 3.45436C4.56647 1.98506 6.1682 1 8 1C10.6946 1 12.8914 3.13157 12.9961 5.80051Z" fill="white"/>
</svg>
